<svg
  aria-hidden="true"
  style="position: absolute; width: 0; height: 0; overflow: hidden"
  version="1.1"
  xmlns="http://www.w3.org/2000/svg"
  xmlns:xlink="http://www.w3.org/1999/xlink"
>
  <defs>
    <symbol id="icon-balance" viewBox="0 0 31 32">
      <path
        fill="none"
        stroke="#fff"
        style="stroke: var(--color1, #fff)"
        stroke-linejoin="round"
        stroke-linecap="round"
        stroke-miterlimit="10"
        stroke-width="0.4475"
        d="M30.937 11.219c-1.028-3.249-3.088-6.074-5.866-8.047s-6.124-2.988-9.53-2.889-6.687 1.305-9.347 3.435c-2.659 2.131-4.552 5.070-5.39 8.373s-0.578 6.789 0.742 9.93c1.32 3.141 3.628 5.767 6.575 7.479s6.37 2.417 9.753 2.009 6.541-1.909 8.995-4.273h0.007l0.127-0.128c0.616-0.618 0.961-1.455 0.96-2.328s-0.348-1.709-0.965-2.326c-0.617-0.617-1.453-0.964-2.326-0.965s-1.71 0.344-2.328 0.96v-0.002c-1.261 1.234-2.855 2.074-4.585 2.417s-3.524 0.173-5.16-0.487c-1.636-0.661-3.044-1.784-4.052-3.233s-1.571-3.159-1.621-4.923c-0.050-1.764 0.415-3.504 1.338-5.008s2.265-2.706 3.861-3.459c1.596-0.753 3.376-1.024 5.124-0.781s3.386 0.991 4.716 2.151l0.441 0.443c0.206 0.209 0.321 0.491 0.32 0.784s-0.118 0.574-0.325 0.782c-0.207 0.207-0.488 0.324-0.782 0.325s-0.575-0.114-0.784-0.32l-0.611-0.613-0.022 0.022c-0.010-0.027-0.026-0.052-0.047-0.072-1.037-0.785-2.276-1.261-3.572-1.37s-2.597 0.15-3.752 0.75c-1.155 0.6-2.115 1.515-2.771 2.639s-0.979 2.411-0.932 3.711c0.046 1.3 0.461 2.561 1.195 3.635s1.757 1.918 2.952 2.434c1.194 0.516 2.511 0.683 3.796 0.481s2.487-0.764 3.466-1.622c0.184-0.206 0.285-0.473 0.284-0.749s-0.106-0.542-0.293-0.746c-0.441-0.477-1.195-0.351-1.569-0.045-0.681 0.554-1.505 0.905-2.376 1.014s-1.756-0.031-2.552-0.401c-0.796-0.37-1.472-0.957-1.951-1.694s-0.74-1.593-0.755-2.471c-0.015-0.878 0.217-1.743 0.671-2.495s1.109-1.362 1.892-1.759c0.783-0.397 1.662-0.566 2.537-0.488s1.71 0.402 2.409 0.932l0.007-0.004 0.396 0.396c0.618 0.616 1.455 0.961 2.328 0.96s1.709-0.348 2.326-0.965 0.964-1.453 0.965-2.326c0.001-0.872-0.344-1.71-0.96-2.328l-0.049-0.049c-0.008-0.035-0.025-0.068-0.049-0.094-1.603-1.534-3.623-2.561-5.807-2.951s-4.434-0.128-6.47 0.754c-2.035 0.883-3.765 2.346-4.972 4.208s-1.838 4.038-1.814 6.256c0.024 2.218 0.703 4.38 1.951 6.215s3.009 3.26 5.063 4.098 4.31 1.051 6.485 0.612c2.175-0.439 4.172-1.509 5.741-3.078 0.003-0.008 0.007-0.015 0.011-0.022 0.202-0.189 0.467-0.295 0.744-0.299s0.544 0.097 0.75 0.282c0.206 0.184 0.336 0.439 0.364 0.714s-0.048 0.551-0.213 0.772c-2.043 2.087-4.71 3.453-7.598 3.892s-5.84-0.074-8.411-1.46c-2.571-1.386-4.621-3.571-5.842-6.225s-1.545-5.632-0.924-8.486 2.153-5.429 4.366-7.336c2.213-1.907 4.985-3.042 7.9-3.235s5.813 0.568 8.257 2.166c2.444 1.599 4.303 3.949 5.294 6.697 0.163 0.454 0.546 1.117 1.327 1.067 0.151-0 0.3-0.035 0.435-0.103s0.253-0.165 0.344-0.286c0.091-0.121 0.153-0.261 0.181-0.409s0.021-0.301-0.020-0.447z"
      ></path>
    </symbol>
    <symbol id="icon-burger-menu" viewBox="0 0 32 32">
      <path
        fill="none"
        stroke="#fff"
        style="stroke: var(--color1, #fff)"
        stroke-linejoin="miter"
        stroke-linecap="butt"
        stroke-miterlimit="4"
        stroke-width="0.7805"
        d="M15.61 31.22c8.406 0 15.22-6.814 15.22-15.22s-6.814-15.22-15.22-15.22c-8.405 0-15.22 6.814-15.22 15.22s6.814 15.22 15.22 15.22z"
      ></path>
      <path
        fill="none"
        stroke="#fff"
        style="stroke: var(--color1, #fff)"
        stroke-linejoin="miter"
        stroke-linecap="butt"
        stroke-miterlimit="4"
        stroke-width="0.7805"
        d="M7.415 12.488h17.171"
      ></path>
      <path
        fill="none"
        stroke="#fff"
        style="stroke: var(--color1, #fff)"
        stroke-linejoin="miter"
        stroke-linecap="butt"
        stroke-miterlimit="4"
        stroke-width="0.7805"
        d="M7.415 16.39h17.171"
      ></path>
      <path
        fill="none"
        stroke="#fff"
        style="stroke: var(--color1, #fff)"
        stroke-linejoin="miter"
        stroke-linecap="butt"
        stroke-miterlimit="4"
        stroke-width="0.7805"
        d="M7.415 20.293h17.171"
      ></path>
    </symbol>
    <symbol id="icon-unfilled-arrow-pointer" viewBox="0 0 32 32">
      <path
        fill="none"
        stroke="#707070"
        style="stroke: var(--color2, #707070)"
        stroke-linejoin="miter"
        stroke-linecap="butt"
        stroke-miterlimit="4"
        stroke-width="0.3855"
        d="M24.987 31.542l6.343-6.343h-19.952l20.011-20.011-4.486-4.487-20.008 20.011v-19.952l-6.346 6.346v24.436h24.439z"
      ></path>
    </symbol>
    <symbol
      id="icon-aeron-gym"
      viewBox="0 0 32 32"
      width="100"
      height="200"
      preserveAspectRatio="xMidYMid meet"
    >
      <path
        fill="#fff"
        style="fill: var(--color1, #fff)"
        d="M0.149 28.461c0.002 0.007 0.004 0.015 0.007 0.022 0.001 0.005 0.002 0.009 0.004 0.013l1.063 1.844 0.004 0.004c0.003 0.005 0.006 0.009 0.010 0.013 0.006 0.006 0.012 0.010 0.018 0.016 0.004 0.003 0.006 0.007 0.010 0.009 0.002 0.001 0.004 0.002 0.006 0.001 0.016 0.008 0.033 0.013 0.051 0.013h18.094c0.018-0 0.035-0.005 0.051-0.013 0.004-0.003 0.007-0.006 0.012-0.009 0.012-0.007 0.022-0.017 0.029-0.029 0.001-0.003 0.004-0.004 0.007-0.007l1.065-1.844c0.001-0.001 0.001-0.004 0.003-0.006 0.003-0.005 0.005-0.009 0.006-0.015s0.003-0.010 0.004-0.015c0.001-0.005 0.002-0.010 0.001-0.015 0-0.003 0.001-0.004 0.001-0.007s-0.001-0.004-0.001-0.007c0-0.003-0.001-0.010-0.001-0.015s-0.003-0.010-0.004-0.015c-0.002-0.005-0.003-0.010-0.006-0.015-0.001-0.001-0.001-0.004-0.003-0.006l-9.046-15.671c-0.003-0.004-0.005-0.007-0.009-0.010-0.005-0.007-0.010-0.012-0.016-0.018-0.011-0.008-0.024-0.016-0.037-0.022-0.008-0.002-0.015-0.004-0.023-0.004-0.004 0-0.009-0.003-0.015-0.003h-2.128c-0.003 0-0.004 0.001-0.007 0.001s-0.010 0.001-0.015 0.001l-0.016 0.004c-0.005 0.002-0.010 0.004-0.015 0.006-0.002 0.001-0.004 0.002-0.006 0.001-0.002 0.002-0.004 0.003-0.006 0.004-0.004 0.003-0.008 0.005-0.012 0.009s-0.008 0.007-0.012 0.012c-0.003 0.004-0.006 0.007-0.009 0.012-0.002 0.002-0.003 0.004-0.004 0.006l-9.048 15.672c-0.002 0.004-0.004 0.009-0.004 0.013-0.003 0.007-0.006 0.014-0.007 0.022s-0.002 0.015-0.001 0.022c0.001 0.007 0.001 0.015 0.003 0.022zM11.371 12.882l8.915 15.442h-15.569l0.932-1.613h11.644c0.018-0 0.036-0.005 0.051-0.015 0.001-0.001 0.004 0 0.006-0.001 0.004-0.002 0.007-0.005 0.010-0.009 0.006-0.005 0.012-0.010 0.018-0.016 0.004-0.005 0.008-0.011 0.012-0.018 0.004-0.006 0.007-0.012 0.009-0.019 0.003-0.007 0.005-0.015 0.004-0.023 0-0.004 0.003-0.009 0.003-0.015 0-0.003-0.001-0.004-0.001-0.007-0.001-0.007-0.002-0.015-0.004-0.022s-0.004-0.015-0.007-0.022c-0.001-0.001-0.001-0.004-0.003-0.006l-7.884-13.657h1.865zM19.354 30.168h-17.83l7.784-13.484 0.932 1.613-5.823 10.085c-0.001 0.002-0.002 0.004-0.001 0.006-0.003 0.007-0.006 0.014-0.007 0.022s-0.004 0.014-0.004 0.022c0 0.003-0.001 0.004-0.001 0.007s0.003 0.009 0.003 0.015c0.001 0.008 0.002 0.016 0.004 0.023s0.006 0.013 0.009 0.019c0.004 0.006 0.007 0.012 0.012 0.018 0.006 0.006 0.012 0.010 0.018 0.016 0.004 0.003 0.006 0.007 0.010 0.009 0.001 0.001 0.004 0 0.006 0.001 0.016 0.009 0.033 0.014 0.051 0.015h15.767l-0.929 1.614zM14.964 26.482h-9.184l4.593-7.955 4.591 7.955zM9.308 12.998l7.784 13.484h-1.862l-5.821-10.085c-0.002-0.002-0.003-0.004-0.004-0.006-0.004-0.006-0.010-0.012-0.015-0.018s-0.011-0.011-0.018-0.015c-0.002-0.002-0.004-0.003-0.006-0.004-0.004-0.002-0.009-0.003-0.013-0.004-0.007-0.003-0.014-0.005-0.022-0.007-0.015-0.002-0.029-0.002-0.044 0-0.008 0.002-0.015 0.004-0.022 0.007-0.005 0.001-0.009 0.002-0.013 0.004-0.002 0.002-0.004 0.003-0.006 0.004-0.006 0.004-0.012 0.010-0.018 0.015s-0.011 0.011-0.015 0.018c-0.002 0.002-0.003 0.004-0.004 0.006l-7.884 13.657-0.932-1.613 8.914-15.443z"
      ></path>
    </symbol>
    <symbol id="icon-body-sculp" viewBox="0 0 32 32">
      <path
        fill="#fff"
        style="fill: var(--color1, #fff)"
        d="M17.081 27.465c0.001-0.001 0.001-0.004 0.003-0.006 0.003-0.004 0.005-0.009 0.006-0.015s0.003-0.010 0.004-0.015c0.001-0.005 0.002-0.010 0.001-0.015 0-0.003 0.001-0.004 0.001-0.007s-0.001-0.004-0.001-0.007c0-0.003-0.001-0.010-0.001-0.015s-0.003-0.010-0.004-0.015c-0.001-0.005-0.003-0.010-0.006-0.015-0.001-0.001-0.001-0.004-0.003-0.006l-1.639-2.838h3.276c0.018-0 0.035-0.005 0.051-0.013 0.004-0.003 0.007-0.006 0.012-0.009 0.012-0.007 0.022-0.017 0.029-0.029 0.001-0.003 0.004-0.004 0.007-0.007l1.659-2.873c0.001-0.001 0.001-0.004 0.003-0.006 0.003-0.004 0.005-0.009 0.006-0.014s0.003-0.010 0.004-0.015c0.001-0.005 0.002-0.010 0.001-0.015 0-0.003 0.001-0.004 0.001-0.007s-0.001-0.004-0.001-0.007c0-0.003-0.001-0.010-0.001-0.015s-0.003-0.010-0.004-0.015c-0.002-0.005-0.003-0.010-0.006-0.015-0.001-0.001-0.001-0.004-0.003-0.006l-1.659-2.873c-0.002-0.004-0.005-0.007-0.009-0.010-0.005-0.007-0.010-0.012-0.016-0.018s-0.012-0.009-0.019-0.013c-0.006-0.004-0.012-0.007-0.019-0.009s-0.015-0.004-0.023-0.004c-0.004 0-0.009-0.003-0.013-0.003h-3.276l1.639-2.838c0.001-0.001 0.001-0.004 0.003-0.006 0.003-0.005 0.005-0.009 0.006-0.015s0.003-0.010 0.004-0.015c0.001-0.005 0.002-0.010 0.001-0.015 0-0.003 0.001-0.004 0.001-0.007s-0.001-0.004-0.001-0.007c0-0.003-0.001-0.010-0.001-0.015s-0.003-0.010-0.004-0.015c-0.001-0.005-0.003-0.010-0.006-0.015-0.001-0.001-0.001-0.004-0.003-0.006l-1.658-2.873c-0.002-0.004-0.005-0.007-0.009-0.010-0.004-0.006-0.009-0.012-0.015-0.018s-0.012-0.009-0.019-0.013c-0.006-0.004-0.012-0.007-0.019-0.009s-0.015-0.004-0.023-0.004c-0.004 0-0.009-0.003-0.013-0.003h-3.317c-0.003 0-0.004 0.001-0.007 0.001s-0.010 0.001-0.015 0.001l-0.016 0.004c-0.005 0.001-0.009 0.003-0.013 0.006-0.002 0.001-0.004 0.002-0.006 0.001l-0.004 0.004c-0.004 0.003-0.008 0.005-0.012 0.009s-0.008 0.007-0.012 0.012c-0.003 0.004-0.006 0.007-0.009 0.012-0.002 0.002-0.003 0.004-0.004 0.006l-1.639 2.838-1.639-2.838c-0.003-0.004-0.005-0.007-0.009-0.010-0.005-0.006-0.010-0.012-0.016-0.018-0.005-0.004-0.011-0.008-0.018-0.012s-0.012-0.007-0.019-0.009c-0.007-0.003-0.015-0.004-0.023-0.004-0.004 0-0.009-0.003-0.013-0.003h-3.317c-0.003 0-0.004 0.001-0.007 0.001s-0.010 0.001-0.015 0.001l-0.016 0.004c-0.005 0.001-0.009 0.003-0.013 0.006-0.002 0.001-0.004 0.002-0.006 0.001-0.002 0.002-0.004 0.003-0.006 0.004-0.004 0.003-0.008 0.005-0.012 0.009s-0.008 0.007-0.012 0.012c-0.003 0.004-0.006 0.007-0.009 0.012-0.002 0.002-0.003 0.004-0.004 0.006l-1.658 2.873c-0.002 0.004-0.004 0.009-0.004 0.013-0.003 0.007-0.006 0.014-0.007 0.022-0.002 0.014-0.002 0.029 0 0.044 0.002 0.007 0.004 0.015 0.007 0.022 0.001 0.005 0.002 0.009 0.004 0.013l1.639 2.838h-3.276c-0.003 0-0.004 0.001-0.007 0.001s-0.010 0.001-0.015 0.001l-0.016 0.004c-0.005 0.001-0.009 0.003-0.013 0.006-0.001 0.001-0.004 0.001-0.006 0.003l-0.004 0.004c-0.004 0.002-0.008 0.005-0.012 0.009s-0.008 0.007-0.012 0.012c-0.003 0.004-0.006 0.007-0.009 0.012-0.002 0.002-0.003 0.004-0.004 0.006l-1.659 2.873c-0.002 0.004-0.004 0.008-0.004 0.013-0.003 0.007-0.006 0.014-0.007 0.022-0.002 0.014-0.002 0.029 0 0.044 0.002 0.007 0.004 0.015 0.007 0.022 0.001 0.005 0.002 0.009 0.004 0.013l1.659 2.873 0.004 0.004c0.003 0.005 0.006 0.009 0.010 0.013 0.006 0.006 0.012 0.010 0.018 0.016 0.004 0.003 0.006 0.007 0.010 0.009 0.002 0.001 0.004 0.002 0.006 0.001 0.016 0.008 0.033 0.013 0.051 0.013h3.276l-1.637 2.838c-0.002 0.004-0.004 0.009-0.004 0.013-0.003 0.007-0.006 0.014-0.007 0.022-0.002 0.015-0.002 0.029 0 0.044 0.002 0.008 0.004 0.015 0.007 0.022 0.001 0.005 0.002 0.009 0.004 0.013l1.658 2.873 0.004 0.004c0.003 0.005 0.006 0.009 0.010 0.013 0.006 0.006 0.012 0.010 0.018 0.016 0.004 0.003 0.006 0.007 0.010 0.009 0.002 0.001 0.004 0.002 0.006 0.001 0.016 0.008 0.033 0.013 0.051 0.013h3.317c0.018-0.001 0.035-0.005 0.051-0.013 0.004-0.003 0.007-0.006 0.012-0.009 0.012-0.007 0.022-0.017 0.029-0.029 0.001-0.003 0.004-0.004 0.007-0.007l1.639-2.838 1.639 2.838 0.004 0.004c0.003 0.005 0.006 0.009 0.010 0.013 0.006 0.006 0.012 0.010 0.018 0.016 0.004 0.003 0.006 0.007 0.010 0.009 0.002 0.001 0.004 0.002 0.006 0.001 0.016 0.008 0.033 0.013 0.051 0.013h3.317c0.018-0.001 0.035-0.005 0.051-0.013 0.004-0.003 0.007-0.006 0.012-0.009 0.012-0.007 0.022-0.017 0.029-0.029 0.001-0.003 0.004-0.004 0.007-0.007l1.651-2.872zM15.257 30.166h-3.053l1.526-2.644h3.053l-1.526 2.644zM8.465 30.166h-3.053l3.265-5.653h3.053l-3.265 5.653zM2.016 24.282l1.526-2.644h6.528l-1.526 2.644h-6.528zM1.817 18.88l1.526 2.644-1.526 2.644-1.526-2.644 1.526-2.644zM3.687 15.64l1.526-2.644 3.265 5.653-1.526 2.644-3.265-5.653zM12.007 12.997l1.526 2.644-3.263 5.653-1.526-2.644 3.263-5.653zM15.257 12.882l1.526 2.644h-3.053l-1.526-2.644h3.053zM18.654 18.766l1.526 2.644h-6.528l-1.526-2.644h6.528zM11.926 18.88l1.459 2.529h-2.92l1.461-2.529zM10.070 21.408h-2.92l1.459-2.529 1.461 2.529zM10.268 21.753l1.459 2.529h-2.92l1.461-2.529zM10.467 21.639h3.051l3.263 5.653h-3.053l-3.262-5.653zM13.784 21.639h6.395l-1.526 2.644h-3.344l-1.525-2.644zM12.126 18.535l1.605-2.78h3.053l-1.605 2.78h-3.053zM8.609 18.421l-3.197-5.539h3.053l1.672 2.895-1.528 2.644zM6.751 21.408h-3.211l-1.526-2.644h3.211l1.526 2.644zM8.411 24.512l-3.197 5.54-1.526-2.644 1.671-2.895h3.053zM11.926 24.626l1.605 2.78-1.526 2.644-1.605-2.781 1.526-2.643z"
      ></path>
    </symbol>
    <symbol id="icon-bold-arrow" viewBox="0 0 32 32">
      <path
        fill="#fff"
        style="fill: var(--color1, #fff)"
        d="M6.817 0.059l-6.534 6.534h20.553l-20.614 20.614 4.622 4.622 20.611-20.614v20.553l6.537-6.537v-25.172h-25.175z"
      ></path>
    </symbol>
    <symbol id="icon-footer-arrow-pointer-filled" viewBox="0 0 32 32">
      <path
        fill="#fff"
        style="fill: var(--color1, #fff)"
        d="M24.691 30.706l6.309-6.309h-19.846l19.905-19.905-4.464-4.462-19.901 19.905v-19.847l-6.311 6.311v24.305l24.309 0.002z"
      ></path>
    </symbol>
    <symbol id="icon-button-arrow" viewBox="0 0 33 32">
      <path
        fill="none"
        stroke="#fff"
        style="stroke: var(--color1, #fff)"
        stroke-linejoin="miter"
        stroke-linecap="butt"
        stroke-miterlimit="4"
        stroke-width="0.9695"
        d="M7.236 24.907l17.998-17.998"
      ></path>
      <path
        fill="none"
        stroke="#fff"
        style="stroke: var(--color1, #fff)"
        stroke-linejoin="miter"
        stroke-linecap="butt"
        stroke-miterlimit="4"
        stroke-width="0.9695"
        d="M12.444 7.104l12.725-0.002-0.002 12.725"
      ></path>
    </symbol>
    <symbol id="icon-forza" viewBox="0 0 32 32">
      <path
        fill="#fff"
        style="fill: var(--color1, #fff)"
        d="M16.829 12.33l-3.825 2.191 0.007 5.705-5.323-5.779-3.902-2.115-3.69 2.086v11.864l3.73 2.082 3.827-2.118v-0.973l5.198 5.449 7.697-4.444v-11.859l-3.719-2.088zM13.362 14.93l3.604 2.067v7.521l-3.598-3.905-0.006-5.683zM0.454 14.828l3.267 1.886 9.003 9.674 0.003 3.681-9.068-9.507v7.297l-3.205-1.787v-11.244zM7.295 24.928v1.107l-3.296 1.823v-6.412l3.316 3.481h-0.020zM20.208 26.074l-7.126 4.112-0.003-3.937-9.135-9.814-3.31-1.911 3.158-1.787 3.678 1.994 9.854 10.695v-8.635l-3.782-2.168 3.297-1.887 3.369 1.887v11.45z"
      ></path>
    </symbol>
    <symbol id="icon-muxpump" viewBox="0 0 34 32">
      <path
        fill="#fff"
        style="fill: var(--color1, #fff)"
        d="M0.102 25.88c0.002 0.008 0.004 0.016 0.007 0.023 0.001 0.004 0.003 0.010 0.004 0.015l1.667 2.887 0.004 0.004c0.003 0.004 0.006 0.009 0.010 0.015 0.006 0.006 0.012 0.012 0.019 0.016 0.004 0.003 0.007 0.007 0.012 0.010 0.002 0.001 0.004 0.002 0.006 0.001 0.017 0.009 0.035 0.014 0.054 0.015h6.595l1.632 2.825 0.004 0.004c0.003 0.004 0.006 0.009 0.010 0.015 0.006 0.006 0.012 0.012 0.019 0.016 0.004 0.003 0.007 0.007 0.012 0.010 0.002 0.001 0.004 0.002 0.006 0.001 0.017 0.009 0.035 0.014 0.054 0.015h10c0.019-0 0.038-0.005 0.056-0.015l0.013-0.009c0.012-0.008 0.023-0.019 0.032-0.031 0.001-0.003 0.006-0.004 0.007-0.007l1.667-2.887c0.001-0.003 0.001-0.004 0.003-0.007 0.003-0.005 0.005-0.009 0.006-0.015s0.003-0.010 0.004-0.016c0.001-0.005 0.002-0.011 0.001-0.016 0-0.003 0.001-0.004 0.001-0.007s-0.001-0.004-0.001-0.007c0-0.006-0.001-0.010-0.001-0.016s-0.003-0.010-0.004-0.016c-0.002-0.005-0.004-0.010-0.006-0.015-0.001-0.003-0.001-0.004-0.003-0.007l-3.297-5.711 1.63-2.826c0.001-0.003 0.001-0.004 0.003-0.007 0.003-0.005 0.005-0.009 0.006-0.015s0.003-0.010 0.004-0.016c0.001-0.005 0.002-0.011 0.001-0.016 0-0.003 0.001-0.004 0.001-0.007s-0.001-0.004-0.001-0.007c0-0.006-0.001-0.010-0.001-0.016s-0.003-0.010-0.004-0.016c-0.002-0.005-0.004-0.010-0.006-0.015-0.001-0.003-0.001-0.004-0.003-0.007l-4.998-8.662c-0.003-0.004-0.007-0.007-0.010-0.012-0.005-0.007-0.010-0.013-0.016-0.019-0.006-0.005-0.012-0.009-0.019-0.013s-0.013-0.008-0.020-0.010c-0.008-0.003-0.017-0.005-0.026-0.006-0.004 0-0.009-0.003-0.015-0.003h-3.334c-0.003 0-0.004 0.001-0.007 0.001-0.006 0-0.010 0.001-0.016 0.001l-0.018 0.004c-0.004 0.001-0.010 0.004-0.015 0.006s-0.004 0.001-0.007 0.003c-0.002 0.002-0.004 0.003-0.006 0.004-0.005 0.003-0.009 0.006-0.013 0.010s-0.008 0.007-0.012 0.012c-0.003 0.004-0.007 0.009-0.010 0.013-0.002 0.002-0.003 0.004-0.004 0.006l-3.297 5.712h-3.261c-0.003 0-0.004 0.001-0.007 0.001-0.006 0-0.010 0.001-0.016 0.001s-0.012 0.003-0.016 0.004c-0.005 0.002-0.010 0.004-0.015 0.006-0.003 0.001-0.004 0.001-0.007 0.003s-0.003 0.003-0.006 0.004c-0.005 0.003-0.009 0.006-0.013 0.010s-0.008 0.007-0.012 0.012c-0.003 0.004-0.007 0.009-0.010 0.013-0.002 0.002-0.003 0.004-0.004 0.006l-4.999 8.662c-0.002 0.005-0.004 0.010-0.004 0.015-0.003 0.008-0.006 0.015-0.007 0.023s-0.003 0.015-0.003 0.023c-0 0.008 0 0.016 0.001 0.023zM15.15 11.546l4.858 8.414h-3.047l-4.859-8.414h3.049zM16.817 25.733h-3.049l3.191-5.528h3.049l-3.191 5.528zM11.888 11.669l4.858 8.414-3.191 5.528-1.524-2.641 1.632-2.825c0.001-0.003 0.001-0.004 0.003-0.007 0.003-0.005 0.005-0.009 0.006-0.015s0.003-0.010 0.004-0.016c0.001-0.005 0.002-0.011 0.001-0.016 0-0.003 0.001-0.004 0.001-0.007s-0.001-0.004-0.001-0.007c0-0.006-0.001-0.010-0.001-0.016s-0.003-0.010-0.004-0.016c-0.002-0.005-0.004-0.010-0.006-0.015-0.001-0.003-0.001-0.004-0.003-0.007l-1.668-2.887c-0.003-0.004-0.007-0.007-0.010-0.012-0.005-0.007-0.010-0.013-0.016-0.019-0.006-0.005-0.012-0.009-0.019-0.013s-0.013-0.007-0.020-0.010c-0.008-0.003-0.016-0.004-0.025-0.004-0.004 0-0.010-0.003-0.015-0.003h-3.121l3.119-5.404zM8.555 17.32h3.262l1.525 2.64h-6.383l-1.525-2.64h3.121zM5.221 17.442l1.524 2.64-4.858 8.414-1.524-2.64 4.858-8.414zM2.102 28.619l4.858-8.414h6.383l-1.525 2.641h-3.262c-0.003 0-0.004 0.001-0.007 0.001-0.006 0-0.010 0.001-0.016 0.001l-0.018 0.004c-0.004 0.001-0.010 0.004-0.015 0.006s-0.004 0.001-0.007 0.003c-0.002 0.002-0.004 0.003-0.006 0.004-0.005 0.003-0.009 0.006-0.013 0.010s-0.008 0.007-0.012 0.012c-0.003 0.004-0.007 0.009-0.010 0.013-0.001 0.001-0.004 0.003-0.004 0.006l-1.667 2.887c-0.002 0.005-0.004 0.010-0.004 0.015-0.003 0.008-0.006 0.015-0.007 0.023s-0.002 0.016-0.001 0.023c-0 0.008 0 0.016 0.001 0.023s0.004 0.016 0.007 0.023c0.001 0.004 0.003 0.010 0.004 0.015l1.56 2.701h-6.238zM20.151 31.506h-9.715l1.524-2.64h9.716l-1.524 2.64zM10.222 31.383l-3.191-5.527 1.525-2.641 3.191 5.527-1.525 2.642zM21.675 28.619h-9.716l-3.191-5.527h3.049l1.632 2.826 0.004 0.004c0.003 0.005 0.006 0.010 0.010 0.015 0.006 0.006 0.012 0.012 0.019 0.016 0.004 0.003 0.007 0.007 0.012 0.010 0.002 0.001 0.004 0.002 0.006 0.001 0.017 0.009 0.035 0.014 0.054 0.015h3.334c0.019-0 0.038-0.005 0.056-0.015l0.013-0.009c0.012-0.008 0.023-0.019 0.032-0.031 0.001-0.003 0.006-0.004 0.007-0.007l1.56-2.703 3.118 5.404z"
      ></path>
    </symbol>
    <symbol id="icon-fit-tone" viewBox="0 0 28 32">
      <path fill="#fff" style="fill: var(--color1, #fff)" d="M27.67 8.017l-4.697-2.712-4.359 2.516v-5.035l-4.699-2.712-4.697 2.712v5.033l-4.359-2.516-4.699 2.714v5.426l4.359 2.516-4.359 2.516v5.426l4.697 2.712 4.359-2.516v5.033l4.697 2.712 4.697-2.712v-5.033l4.359 2.516 4.701-2.712v-5.426l-4.359-2.517 4.359-2.516v-5.426zM22.973 5.695l4.191 2.419-8.523 4.935-0.027-4.838 4.359-2.516zM18.276 8.407l0.027 4.84-4.218 2.444v-10.093l4.191-2.419v5.228zM9.556 3.179l4.189 2.419v10.093l-4.189-2.426v-10.086zM4.857 5.695l4.359 2.516v4.854l-8.548-4.951 4.189-2.419zM0.498 13.247v-4.838l8.55 4.951-4.189 2.403-4.361-2.517zM0.498 23.705v-4.838l4.189 2.419v4.838l-4.189-2.419zM0.668 18.573l4.275-2.467 4.445-2.55 4.189 2.426-8.718 5.010-4.191-2.419zM13.745 31.352l-4.189-2.419v-5.033l4.189-2.419v9.871zM9.556 23.51l-0.254 0.148-4.275 2.469v-4.838l8.718-5.010v4.813l-4.189 2.419zM13.915 5.305l-4.189-2.419 4.189-2.419 4.189 2.419-4.189 2.419zM18.274 28.933l-4.189 2.419v-9.871l4.189 2.419v5.033zM22.803 26.124l-8.718-5.035v-4.813l8.718 5.010v4.838zM27.332 23.705l-4.189 2.419v-4.879l4.189-2.38v4.84zM27.16 18.573l-4.223 2.401-8.684-4.99 4.218-2.444 4.416 2.566 4.273 2.467zM27.332 13.247l-4.359 2.517-4.162-2.419 8.523-4.935v4.838h-0.002z"></path>
      </symbol>
    <symbol id="icon-plus-title-decoration" viewBox="0 0 20 32">
      <path
        fill="#fff"
        style="fill: var(--color1, #fff)"
        d="M20.293 15.346h-20.293v1.015h20.293v-1.015z"
      ></path>
      <path
        fill="#fff"
        style="fill: var(--color1, #fff)"
        d="M10.654 26v-20.293h-1.015v20.293h1.015z"
      ></path>
    </symbol>
  </defs>
</svg>
